<mxfile host="app.diagrams.net" agent="Mozilla/5.0 (Windows NT 10.0; Win64; x64) AppleWebKit/537.36 (KHTML, like Gecko) Chrome/131.0.0.0 Safari/537.36" version="27.0.6">
  <diagram name="Trang-1" id="dGXFMSY6yvkfrvN1_UQj">
    <mxGraphModel grid="1" page="1" gridSize="10" guides="1" tooltips="1" connect="1" arrows="1" fold="1" pageScale="1" pageWidth="827" pageHeight="1169" math="0" shadow="0">
      <root>
        <mxCell id="0" />
        <mxCell id="1" parent="0" />
        <mxCell id="59GAjBjFBviginhASrRZ-31" value="&lt;p style=&quot;margin:0px;margin-top:4px;text-align:center;&quot;&gt;&lt;i&gt;&amp;lt;&amp;lt;boundary&amp;gt;&amp;gt;&lt;/i&gt;&lt;br&gt;&lt;b&gt;TheoDoiDonHangUI&lt;/b&gt;&lt;/p&gt;&lt;hr size=&quot;1&quot;&gt;&lt;p style=&quot;&quot; dir=&quot;auto&quot;&gt;&lt;span style=&quot;white-space: pre-wrap;&quot;&gt;+ kich vao nut &quot;Don mua&quot;()&lt;br/&gt;+ hien thi man hinh danh sach don mua()&lt;br/&gt;+ kich nut &quot;xem chi tiet&quot;()&lt;br/&gt;+ hien thi chi tiet don hang()&lt;br/&gt;+ kich nut &quot;Huy don hang&quot;()&lt;br/&gt;+ hien thi thong bao xac nhan huy()&lt;br/&gt;+ kich nut &quot;Huy&quot;()&lt;br/&gt;+ hien thi thong bao huy don hang thanh cong()&lt;/span&gt;&lt;/p&gt;&lt;p style=&quot;white-space: pre-wrap;&quot; dir=&quot;auto&quot;&gt;&lt;br&gt;&lt;/p&gt;&lt;p style=&quot;white-space: pre-wrap;&quot; dir=&quot;auto&quot;&gt;&lt;br&gt;&lt;/p&gt;&lt;p style=&quot;margin:0px;margin-left:4px;&quot;&gt;&lt;br&gt;&lt;/p&gt;" style="verticalAlign=top;align=left;overflow=fill;fontSize=12;fontFamily=Helvetica;html=1;rounded=0;shadow=0;comic=0;labelBackgroundColor=none;strokeWidth=1;fillColor=#F2CC8F;strokeColor=#E07A5F;fontColor=#393C56;" vertex="1" parent="1">
          <mxGeometry x="210" y="40" width="260" height="190" as="geometry" />
        </mxCell>
        <mxCell id="59GAjBjFBviginhASrRZ-32" value="&lt;p style=&quot;margin:0px;margin-top:4px;text-align:center;&quot;&gt;&lt;i&gt;&amp;lt;&amp;lt;entity&amp;gt;&lt;/i&gt;&lt;br&gt;&lt;b&gt;Orders&lt;/b&gt;&lt;/p&gt;&lt;hr size=&quot;1&quot;&gt;&lt;p style=&quot;&quot; dir=&quot;auto&quot;&gt;&lt;span style=&quot;white-space: pre-wrap;&quot;&gt;+ ordersId&lt;br/&gt;+ address&lt;br/&gt;+ amount&lt;br/&gt;+ orderDate&lt;br/&gt;+ phone&lt;br/&gt;+ status&lt;br/&gt;+ userId&lt;br/&gt;+ ship&lt;/span&gt;&lt;/p&gt;&lt;hr size=&quot;1&quot;&gt;&lt;div&gt;&lt;div&gt;+ getOrdersId()&lt;/div&gt;&lt;div&gt;+ setOrdersId()&lt;/div&gt;&lt;div&gt;+ getAddress()&lt;/div&gt;&lt;div&gt;+ setAddress()&lt;/div&gt;&lt;div&gt;+ getAmount()&lt;/div&gt;&lt;div&gt;+ setAmount()&lt;/div&gt;&lt;div&gt;+ getOrderDate()&lt;/div&gt;&lt;div&gt;+ setOrderDate()&lt;/div&gt;&lt;div&gt;+ getPhone()&lt;/div&gt;&lt;div&gt;+ setPhone()&lt;/div&gt;&lt;div&gt;+ getStatus()&lt;/div&gt;&lt;div&gt;+ setStatus()&lt;/div&gt;&lt;div&gt;+ getUserId()&lt;/div&gt;&lt;div&gt;+ setUserId()&lt;/div&gt;&lt;div&gt;+ getShip()&lt;/div&gt;&lt;div&gt;+ setShip()&lt;/div&gt;&lt;div&gt;+ doc bang Orders()&lt;/div&gt;&lt;div&gt;+ getOrders()&lt;/div&gt;&lt;div&gt;+ updateOrderByOrderId()&lt;/div&gt;&lt;div&gt;+ getOrdersByOrderId()&lt;/div&gt;&lt;/div&gt;&lt;div&gt;&lt;br&gt;&lt;p style=&quot;white-space: pre-wrap;&quot; dir=&quot;auto&quot;&gt;&lt;br&gt;&lt;/p&gt;&lt;/div&gt;" style="verticalAlign=top;align=left;overflow=fill;fontSize=12;fontFamily=Helvetica;html=1;rounded=0;shadow=0;comic=0;labelBackgroundColor=none;strokeWidth=1;fillColor=#F2CC8F;strokeColor=#E07A5F;fontColor=#393C56;" vertex="1" parent="1">
          <mxGeometry x="230" y="281" width="160" height="490" as="geometry" />
        </mxCell>
        <mxCell id="59GAjBjFBviginhASrRZ-33" value="&lt;p style=&quot;margin:0px;margin-top:4px;text-align:center;&quot;&gt;&lt;i&gt;&amp;lt;&amp;lt;Control&amp;gt;&amp;gt;&lt;/i&gt;&lt;br&gt;&lt;b&gt;TheoDoiDonHang&lt;/b&gt;&lt;b&gt;Controller&lt;/b&gt;&lt;/p&gt;&lt;hr size=&quot;1&quot;&gt;&lt;div&gt;+ lay thong tin don mua tu bang Orders()&lt;/div&gt;&lt;div&gt;+ lay thong tin bang OrderDetails()&lt;/div&gt;&lt;div&gt;+ cap nhat thong tin bang Orders()&lt;/div&gt;&lt;div&gt;&lt;p style=&quot;white-space: pre-wrap;&quot; dir=&quot;auto&quot;&gt;&lt;br&gt;&lt;/p&gt;&lt;p style=&quot;white-space: pre-wrap;&quot; dir=&quot;auto&quot;&gt;&lt;br&gt;&lt;/p&gt;&lt;/div&gt;" style="verticalAlign=top;align=left;overflow=fill;fontSize=12;fontFamily=Helvetica;html=1;rounded=0;shadow=0;comic=0;labelBackgroundColor=none;strokeWidth=1;fillColor=#F2CC8F;strokeColor=#E07A5F;fontColor=#393C56;" vertex="1" parent="1">
          <mxGeometry x="570" y="40" width="240" height="110" as="geometry" />
        </mxCell>
        <mxCell id="59GAjBjFBviginhASrRZ-34" value="&lt;b&gt;KhachHang&lt;/b&gt;" style="shape=umlActor;verticalLabelPosition=bottom;verticalAlign=top;html=1;outlineConnect=0;textShadow=0;labelBorderColor=none;labelBackgroundColor=none;fillColor=#F2CC8F;strokeColor=#E07A5F;fontColor=#393C56;" vertex="1" parent="1">
          <mxGeometry x="50" y="65" width="30" height="60" as="geometry" />
        </mxCell>
        <mxCell id="59GAjBjFBviginhASrRZ-35" value="" style="endArrow=none;html=1;rounded=0;labelBackgroundColor=none;fontColor=default;strokeColor=#E07A5F;" edge="1" parent="1">
          <mxGeometry relative="1" as="geometry">
            <mxPoint x="90" y="91" as="sourcePoint" />
            <mxPoint x="210" y="90" as="targetPoint" />
          </mxGeometry>
        </mxCell>
        <mxCell id="59GAjBjFBviginhASrRZ-38" value="1" style="text;html=1;align=center;verticalAlign=middle;resizable=0;points=[];autosize=1;strokeColor=none;fillColor=none;labelBackgroundColor=none;fontColor=#393C56;" vertex="1" parent="1">
          <mxGeometry x="540" y="65" width="30" height="30" as="geometry" />
        </mxCell>
        <mxCell id="59GAjBjFBviginhASrRZ-39" value="" style="endArrow=none;html=1;rounded=0;labelBackgroundColor=none;fontColor=default;exitX=0.583;exitY=1;exitDx=0;exitDy=0;exitPerimeter=0;strokeColor=#E07A5F;" edge="1" parent="1" source="59GAjBjFBviginhASrRZ-33">
          <mxGeometry relative="1" as="geometry">
            <mxPoint x="721" y="172" as="sourcePoint" />
            <mxPoint x="710" y="270" as="targetPoint" />
          </mxGeometry>
        </mxCell>
        <mxCell id="59GAjBjFBviginhASrRZ-40" value="" style="endArrow=none;html=1;rounded=0;labelBackgroundColor=none;fontColor=default;exitX=0.25;exitY=1;exitDx=0;exitDy=0;strokeColor=#E07A5F;" edge="1" parent="1" source="59GAjBjFBviginhASrRZ-33">
          <mxGeometry relative="1" as="geometry">
            <mxPoint x="617" y="150" as="sourcePoint" />
            <mxPoint x="560" y="280" as="targetPoint" />
          </mxGeometry>
        </mxCell>
        <mxCell id="59GAjBjFBviginhASrRZ-41" value="&lt;b style=&quot;forced-color-adjust: none; color: rgb(0, 0, 0); font-family: Helvetica; font-size: 12px; font-style: normal; font-variant-ligatures: normal; font-variant-caps: normal; letter-spacing: normal; orphans: 2; text-align: center; text-indent: 0px; text-transform: none; widows: 2; word-spacing: 0px; -webkit-text-stroke-width: 0px; white-space: nowrap; background-color: rgb(236, 236, 236); text-decoration-thickness: initial; text-decoration-style: initial; text-decoration-color: initial;&quot;&gt;(From Use Case View)&lt;/b&gt;" style="text;whiteSpace=wrap;html=1;labelBackgroundColor=none;fontColor=#393C56;" vertex="1" parent="1">
          <mxGeometry x="10" y="137" width="160" height="40" as="geometry" />
        </mxCell>
        <mxCell id="59GAjBjFBviginhASrRZ-42" value="&lt;p style=&quot;margin:0px;margin-top:4px;text-align:center;&quot;&gt;&lt;i&gt;&amp;lt;&amp;lt;entity&amp;gt;&lt;/i&gt;&lt;br&gt;&lt;b&gt;Users&lt;/b&gt;&lt;/p&gt;&lt;hr size=&quot;1&quot;&gt;&lt;p style=&quot;&quot; dir=&quot;auto&quot;&gt;&lt;span style=&quot;white-space: pre-wrap;&quot;&gt;+ email&lt;br&gt;+ password&lt;br&gt;+ userId&lt;br&gt;+ address&lt;br&gt;+ gender&lt;br&gt;+ image&lt;br&gt;+ phone&lt;br&gt;+ registerDate&lt;br&gt;+ status&lt;br&gt;+ token&lt;br&gt;+ name&lt;/span&gt;&lt;/p&gt;&lt;hr size=&quot;1&quot;&gt;&lt;div&gt;&lt;div&gt;+ getEmail()&lt;/div&gt;&lt;div&gt;+ setEmail()&lt;/div&gt;&lt;div&gt;+ getPassword()&lt;/div&gt;&lt;div&gt;+ setPassword()&lt;/div&gt;&lt;div&gt;+ getUserId()&lt;/div&gt;&lt;div&gt;+ setUserId()&lt;/div&gt;&lt;div&gt;+ getAddress()&lt;/div&gt;&lt;div&gt;+ setAddress()&lt;/div&gt;&lt;div&gt;+ getGender()&lt;/div&gt;&lt;div&gt;+ setGender()&lt;/div&gt;&lt;div&gt;+ getPhone()&lt;/div&gt;&lt;div&gt;+ setPhone()&lt;/div&gt;&lt;div&gt;+ getImage()&lt;/div&gt;&lt;div&gt;+ setImage()&lt;/div&gt;&lt;div&gt;+ getRegisterDate()&lt;/div&gt;&lt;div&gt;+ setRegisterDate()&lt;/div&gt;&lt;div&gt;+ getStatus()&lt;/div&gt;&lt;div&gt;+ setStatus()&lt;/div&gt;&lt;div&gt;+ getToken()&lt;/div&gt;&lt;div&gt;+ setToken()&lt;/div&gt;&lt;div&gt;+ getName()&lt;/div&gt;&lt;div&gt;+ setName()&lt;/div&gt;&lt;div&gt;+ getUsers()&lt;/div&gt;&lt;div&gt;+ getUsersByUserId()&lt;/div&gt;&lt;div&gt;+ getUsersByName()&lt;/div&gt;&lt;div&gt;+ updateUsersByUserId()&lt;/div&gt;&lt;div&gt;+ deleteUsersByUserId()&lt;/div&gt;&lt;div&gt;&lt;span style=&quot;background-color: transparent;&quot;&gt;+ createUsers()&lt;/span&gt;&lt;span style=&quot;background-color: transparent; color: light-dark(rgb(0, 0, 0), rgb(255, 255, 255));&quot;&gt;&amp;nbsp;&amp;nbsp;&lt;/span&gt;&lt;/div&gt;&lt;/div&gt;&lt;div&gt;&lt;p style=&quot;white-space: pre-wrap;&quot; dir=&quot;auto&quot;&gt;&lt;br&gt;&lt;/p&gt;&lt;/div&gt;" style="verticalAlign=top;align=left;overflow=fill;fontSize=12;fontFamily=Helvetica;html=1;rounded=0;shadow=0;comic=0;labelBackgroundColor=none;strokeWidth=1;fillColor=#F2CC8F;strokeColor=#E07A5F;fontColor=#393C56;" vertex="1" parent="1">
          <mxGeometry x="10" y="220" width="160" height="640" as="geometry" />
        </mxCell>
        <mxCell id="59GAjBjFBviginhASrRZ-43" value="&lt;p style=&quot;margin:0px;margin-top:4px;text-align:center;&quot;&gt;&lt;i&gt;&amp;lt;&amp;lt;entity&amp;gt;&lt;/i&gt;&lt;br&gt;&lt;b&gt;Products&lt;/b&gt;&lt;/p&gt;&lt;hr size=&quot;1&quot;&gt;&lt;p style=&quot;&quot; dir=&quot;auto&quot;&gt;&lt;span style=&quot;white-space: pre-wrap;&quot;&gt;+ productId  &lt;br&gt;+ description  &lt;br&gt;+ discount  &lt;br&gt;+ enteredDate  &lt;br&gt;+ image  &lt;br&gt;+ price  &lt;br&gt;+ name  &lt;br&gt;+ quantity  &lt;br&gt;+ sold  &lt;br&gt;+ status  &lt;br&gt;+ categoryId  &lt;br&gt;+ branch  &lt;br&gt;+ material&lt;/span&gt;&amp;nbsp;&amp;nbsp;&lt;/p&gt;&lt;hr size=&quot;1&quot;&gt;&lt;div&gt;&lt;div&gt;+ getProductId()&amp;nbsp;&amp;nbsp;&lt;/div&gt;&lt;div&gt;+ setProductId()&amp;nbsp;&amp;nbsp;&lt;/div&gt;&lt;div&gt;+ getDescription()&amp;nbsp;&amp;nbsp;&lt;/div&gt;&lt;div&gt;+ setDescription()&amp;nbsp;&amp;nbsp;&lt;/div&gt;&lt;div&gt;+ getDiscount()&amp;nbsp;&amp;nbsp;&lt;/div&gt;&lt;div&gt;+ setDiscount()&amp;nbsp;&amp;nbsp;&lt;/div&gt;&lt;div&gt;+ getEnteredDate()&amp;nbsp;&amp;nbsp;&lt;/div&gt;&lt;div&gt;+ setEnteredDate()&amp;nbsp;&amp;nbsp;&lt;/div&gt;&lt;div&gt;+ getImage()&amp;nbsp;&amp;nbsp;&lt;/div&gt;&lt;div&gt;+ setImage()&amp;nbsp;&amp;nbsp;&lt;/div&gt;&lt;div&gt;+ getPrice()&amp;nbsp;&amp;nbsp;&lt;/div&gt;&lt;div&gt;+ setPrice()&amp;nbsp;&amp;nbsp;&lt;/div&gt;&lt;div&gt;+ getName()&amp;nbsp;&amp;nbsp;&lt;/div&gt;&lt;div&gt;+ setName()&amp;nbsp;&amp;nbsp;&lt;/div&gt;&lt;div&gt;+ getQuantity()&amp;nbsp;&amp;nbsp;&lt;/div&gt;&lt;div&gt;+ setQuantity()&amp;nbsp;&amp;nbsp;&lt;/div&gt;&lt;div&gt;+ getSold()&amp;nbsp;&amp;nbsp;&lt;/div&gt;&lt;div&gt;+ setSold()&amp;nbsp;&amp;nbsp;&lt;/div&gt;&lt;div&gt;+ getStatus()&amp;nbsp;&amp;nbsp;&lt;/div&gt;&lt;div&gt;+ setStatus()&amp;nbsp;&amp;nbsp;&lt;/div&gt;&lt;div&gt;+ getCategoryId()&amp;nbsp;&amp;nbsp;&lt;/div&gt;&lt;div&gt;+ setCategoryId()&amp;nbsp;&amp;nbsp;&lt;/div&gt;&lt;div&gt;+ getBranch()&amp;nbsp;&amp;nbsp;&lt;/div&gt;&lt;div&gt;+ setBranch()&amp;nbsp;&amp;nbsp;&lt;/div&gt;&lt;div&gt;+ getMaterial()&amp;nbsp;&amp;nbsp;&lt;/div&gt;&lt;div&gt;+ setMaterial()&amp;nbsp;&amp;nbsp;&lt;/div&gt;&lt;div&gt;+ getProductsByCategoryId()&amp;nbsp;&amp;nbsp;&lt;/div&gt;&lt;div&gt;+ getProductsByOrderDetailId()&amp;nbsp;&amp;nbsp;&lt;/div&gt;&lt;div&gt;+ updateProductsByProductId()&amp;nbsp;&amp;nbsp;&lt;/div&gt;&lt;div&gt;+ getProductsByProductId()&amp;nbsp;&amp;nbsp;&lt;/div&gt;&lt;div&gt;+ getProductsByName()&amp;nbsp;&amp;nbsp;&lt;/div&gt;&lt;div&gt;+ getProducts()&amp;nbsp;&amp;nbsp;&lt;/div&gt;&lt;div&gt;+ deleteProductsByProductId()&amp;nbsp;&amp;nbsp;&lt;/div&gt;&lt;div&gt;+ createProducts()&amp;nbsp;&amp;nbsp;&lt;/div&gt;&lt;/div&gt;&lt;div&gt;&lt;br&gt;&lt;/div&gt;&lt;div&gt;&lt;br&gt;&lt;p style=&quot;white-space: pre-wrap;&quot; dir=&quot;auto&quot;&gt;&lt;br&gt;&lt;/p&gt;&lt;/div&gt;" style="verticalAlign=top;align=left;overflow=fill;fontSize=12;fontFamily=Helvetica;html=1;rounded=0;shadow=0;comic=0;labelBackgroundColor=none;strokeWidth=1;fillColor=#F2CC8F;strokeColor=#E07A5F;fontColor=#393C56;" vertex="1" parent="1">
          <mxGeometry x="640" y="270" width="170" height="750" as="geometry" />
        </mxCell>
        <mxCell id="59GAjBjFBviginhASrRZ-44" value="&lt;p style=&quot;margin:0px;margin-top:4px;text-align:center;&quot;&gt;&lt;i&gt;&amp;lt;&amp;lt;entity&amp;gt;&lt;/i&gt;&lt;br&gt;&lt;b&gt;OrderDetails&lt;/b&gt;&lt;/p&gt;&lt;hr size=&quot;1&quot;&gt;&lt;p style=&quot;&quot; dir=&quot;auto&quot;&gt;&lt;span style=&quot;white-space: pre-wrap;&quot;&gt;+ orderDetailId&lt;br&gt;+ price&lt;br&gt;+ quantity&lt;br&gt;+ orderId&lt;br&gt;+ productId&lt;br&gt;+ size&lt;/span&gt;&lt;/p&gt;&lt;hr size=&quot;1&quot;&gt;&lt;div&gt;&lt;div&gt;+ getOrderDetailId()&lt;/div&gt;&lt;div&gt;+ setOrderDetailId()&lt;/div&gt;&lt;div&gt;+ getPrice()&lt;/div&gt;&lt;div&gt;+ setPrice()&lt;/div&gt;&lt;div&gt;+ getQuantity()&lt;/div&gt;&lt;div&gt;+ setQuantity()&lt;/div&gt;&lt;div&gt;+ getOrderId()&lt;/div&gt;&lt;div&gt;+ setOrderId()&lt;/div&gt;&lt;div&gt;+ getProductId()&lt;/div&gt;&lt;div&gt;+ setProductId()&lt;/div&gt;&lt;div&gt;+ getSize()&lt;/div&gt;&lt;div&gt;+ setSize()&lt;/div&gt;&lt;div&gt;+ getOrderDetails()&lt;/div&gt;&lt;div&gt;+ getOrderDetailsByOrderDetailId()&lt;/div&gt;&lt;/div&gt;&lt;div&gt;&lt;br&gt;&lt;/div&gt;&lt;div&gt;&lt;br&gt;&lt;p style=&quot;white-space: pre-wrap;&quot; dir=&quot;auto&quot;&gt;&lt;br&gt;&lt;/p&gt;&lt;/div&gt;" style="verticalAlign=top;align=left;overflow=fill;fontSize=12;fontFamily=Helvetica;html=1;rounded=0;shadow=0;comic=0;labelBackgroundColor=none;strokeWidth=1;fillColor=#F2CC8F;strokeColor=#E07A5F;fontColor=#393C56;" vertex="1" parent="1">
          <mxGeometry x="414" y="281" width="196" height="369" as="geometry" />
        </mxCell>
        <mxCell id="59GAjBjFBviginhASrRZ-46" value="1" style="text;html=1;align=center;verticalAlign=middle;resizable=0;points=[];autosize=1;strokeColor=none;fillColor=none;labelBackgroundColor=none;fontColor=#393C56;" vertex="1" parent="1">
          <mxGeometry x="390" y="690" width="30" height="30" as="geometry" />
        </mxCell>
        <mxCell id="59GAjBjFBviginhASrRZ-50" value="1" style="text;html=1;align=center;verticalAlign=middle;resizable=0;points=[];autosize=1;strokeColor=none;fillColor=none;labelBackgroundColor=none;fontColor=#393C56;" vertex="1" parent="1">
          <mxGeometry x="170" y="820" width="30" height="30" as="geometry" />
        </mxCell>
        <mxCell id="59GAjBjFBviginhASrRZ-53" value="1" style="text;html=1;align=center;verticalAlign=middle;resizable=0;points=[];autosize=1;strokeColor=none;fillColor=none;labelBackgroundColor=none;fontColor=#393C56;" vertex="1" parent="1">
          <mxGeometry x="540" y="110" width="30" height="30" as="geometry" />
        </mxCell>
        <mxCell id="59GAjBjFBviginhASrRZ-54" value="1" style="text;html=1;align=center;verticalAlign=middle;resizable=0;points=[];autosize=1;strokeColor=none;fillColor=none;labelBackgroundColor=none;fontColor=#393C56;" vertex="1" parent="1">
          <mxGeometry x="560" y="150" width="30" height="30" as="geometry" />
        </mxCell>
        <mxCell id="59GAjBjFBviginhASrRZ-55" value="1" style="text;html=1;align=center;verticalAlign=middle;resizable=0;points=[];autosize=1;strokeColor=none;fillColor=none;labelBackgroundColor=none;fontColor=#393C56;" vertex="1" parent="1">
          <mxGeometry x="620" y="177" width="30" height="30" as="geometry" />
        </mxCell>
        <mxCell id="59GAjBjFBviginhASrRZ-56" value="1" style="text;html=1;align=center;verticalAlign=middle;resizable=0;points=[];autosize=1;strokeColor=none;fillColor=none;labelBackgroundColor=none;fontColor=#393C56;" vertex="1" parent="1">
          <mxGeometry x="710" y="160" width="30" height="30" as="geometry" />
        </mxCell>
        <mxCell id="59GAjBjFBviginhASrRZ-57" value="n" style="text;html=1;align=center;verticalAlign=middle;resizable=0;points=[];autosize=1;strokeColor=none;fillColor=none;labelBackgroundColor=none;fontColor=#393C56;" vertex="1" parent="1">
          <mxGeometry x="170" y="240" width="30" height="30" as="geometry" />
        </mxCell>
        <mxCell id="59GAjBjFBviginhASrRZ-59" value="n" style="text;html=1;align=center;verticalAlign=middle;resizable=0;points=[];autosize=1;strokeColor=none;fillColor=none;labelBackgroundColor=none;fontColor=#393C56;" vertex="1" parent="1">
          <mxGeometry x="550" y="240" width="30" height="30" as="geometry" />
        </mxCell>
        <mxCell id="59GAjBjFBviginhASrRZ-60" value="n" style="text;html=1;align=center;verticalAlign=middle;resizable=0;points=[];autosize=1;strokeColor=none;fillColor=none;labelBackgroundColor=none;fontColor=#393C56;" vertex="1" parent="1">
          <mxGeometry x="710" y="240" width="30" height="30" as="geometry" />
        </mxCell>
        <mxCell id="59GAjBjFBviginhASrRZ-61" value="" style="endArrow=none;html=1;rounded=0;labelBackgroundColor=none;fontColor=default;strokeColor=#E07A5F;" edge="1" parent="1">
          <mxGeometry relative="1" as="geometry">
            <mxPoint x="470" y="91" as="sourcePoint" />
            <mxPoint x="570" y="90" as="targetPoint" />
          </mxGeometry>
        </mxCell>
        <mxCell id="59GAjBjFBviginhASrRZ-62" value="1" style="text;html=1;align=center;verticalAlign=middle;resizable=0;points=[];autosize=1;strokeColor=none;fillColor=none;labelBackgroundColor=none;fontColor=#393C56;" vertex="1" parent="1">
          <mxGeometry x="470" y="65" width="30" height="30" as="geometry" />
        </mxCell>
        <mxCell id="59GAjBjFBviginhASrRZ-63" value="" style="endArrow=none;html=1;rounded=0;labelBackgroundColor=none;fontColor=default;entryX=0;entryY=1;entryDx=0;entryDy=0;strokeColor=#E07A5F;" edge="1" parent="1" target="59GAjBjFBviginhASrRZ-33">
          <mxGeometry relative="1" as="geometry">
            <mxPoint x="380" y="280" as="sourcePoint" />
            <mxPoint x="545" y="150" as="targetPoint" />
            <Array as="points">
              <mxPoint x="510" y="260" />
            </Array>
          </mxGeometry>
        </mxCell>
        <mxCell id="59GAjBjFBviginhASrRZ-64" value="n" style="text;html=1;align=center;verticalAlign=middle;resizable=0;points=[];autosize=1;strokeColor=none;fillColor=none;labelBackgroundColor=none;fontColor=#393C56;" vertex="1" parent="1">
          <mxGeometry x="370" y="251" width="30" height="30" as="geometry" />
        </mxCell>
        <mxCell id="59GAjBjFBviginhASrRZ-65" value="" style="endArrow=none;html=1;rounded=0;labelBackgroundColor=none;fontColor=default;entryX=0;entryY=1;entryDx=0;entryDy=0;exitX=1;exitY=0.078;exitDx=0;exitDy=0;exitPerimeter=0;strokeColor=#E07A5F;" edge="1" parent="1" source="59GAjBjFBviginhASrRZ-42">
          <mxGeometry relative="1" as="geometry">
            <mxPoint x="380" y="255" as="sourcePoint" />
            <mxPoint x="570" y="125" as="targetPoint" />
            <Array as="points">
              <mxPoint x="510" y="235" />
            </Array>
          </mxGeometry>
        </mxCell>
        <mxCell id="59GAjBjFBviginhASrRZ-66" value="" style="endArrow=none;html=1;rounded=0;labelBackgroundColor=none;fontColor=default;exitX=0.641;exitY=1.004;exitDx=0;exitDy=0;exitPerimeter=0;entryX=0.002;entryY=0.599;entryDx=0;entryDy=0;entryPerimeter=0;strokeColor=#E07A5F;" edge="1" parent="1" source="59GAjBjFBviginhASrRZ-44" target="59GAjBjFBviginhASrRZ-43">
          <mxGeometry relative="1" as="geometry">
            <mxPoint x="470" y="731" as="sourcePoint" />
            <mxPoint x="590" y="730" as="targetPoint" />
          </mxGeometry>
        </mxCell>
        <mxCell id="59GAjBjFBviginhASrRZ-67" value="" style="endArrow=none;html=1;rounded=0;labelBackgroundColor=none;fontColor=default;strokeColor=#E07A5F;" edge="1" parent="1">
          <mxGeometry relative="1" as="geometry">
            <mxPoint x="390" y="691" as="sourcePoint" />
            <mxPoint x="480" y="650" as="targetPoint" />
          </mxGeometry>
        </mxCell>
        <mxCell id="59GAjBjFBviginhASrRZ-68" value="" style="endArrow=none;html=1;rounded=0;labelBackgroundColor=none;fontColor=default;strokeColor=#E07A5F;" edge="1" parent="1">
          <mxGeometry relative="1" as="geometry">
            <mxPoint x="170" y="821" as="sourcePoint" />
            <mxPoint x="280" y="770" as="targetPoint" />
          </mxGeometry>
        </mxCell>
        <mxCell id="59GAjBjFBviginhASrRZ-70" value="n" style="text;html=1;align=center;verticalAlign=middle;resizable=0;points=[];autosize=1;strokeColor=none;fillColor=none;labelBackgroundColor=none;fontColor=#393C56;" vertex="1" parent="1">
          <mxGeometry x="270" y="771" width="30" height="30" as="geometry" />
        </mxCell>
        <mxCell id="59GAjBjFBviginhASrRZ-71" value="n" style="text;html=1;align=center;verticalAlign=middle;resizable=0;points=[];autosize=1;strokeColor=none;fillColor=none;labelBackgroundColor=none;fontColor=#393C56;" vertex="1" parent="1">
          <mxGeometry x="470" y="650" width="30" height="30" as="geometry" />
        </mxCell>
        <mxCell id="59GAjBjFBviginhASrRZ-72" value="n" style="text;html=1;align=center;verticalAlign=middle;resizable=0;points=[];autosize=1;strokeColor=none;fillColor=none;labelBackgroundColor=none;fontColor=#393C56;" vertex="1" parent="1">
          <mxGeometry x="520" y="650" width="30" height="30" as="geometry" />
        </mxCell>
        <mxCell id="59GAjBjFBviginhASrRZ-73" value="1" style="text;html=1;align=center;verticalAlign=middle;resizable=0;points=[];autosize=1;strokeColor=none;fillColor=none;labelBackgroundColor=none;fontColor=#393C56;" vertex="1" parent="1">
          <mxGeometry x="610" y="710" width="30" height="30" as="geometry" />
        </mxCell>
      </root>
    </mxGraphModel>
  </diagram>
</mxfile>
